# xmcd CD database file
#
# Track frame offsets:
#	150
#	39253
#	89692
#	115129
#	139280
#	198599
#	228909
#	263644
#
# Disc length: 4020 seconds
#
# Revision: 0
# Processed by: cddbd v1.5.2PL0 Copyright (c) Steve Scherf et al.
# Submitted via: CDex 1.70beta2
#
DISCID=6a0fb208
DTITLE=Mathew Halsall - Colour Yes
DYEAR=2019
DGENRE=Jazz
TTITLE0=Colour Yes
TTITLE1=Together
TTITLE2=I've Found Joy
TTITLE3=Mudita
TTITLE4=I've Been Here Before
TTITLE5=Me and You
TTITLE6=It's What We Do
TTITLE7=Ai
EXTD=YEAR: 2019
EXTT0=
EXTT1=
EXTT2=
EXTT3=
EXTT4=
EXTT5=
EXTT6=
EXTT7=
PLAYORDER=
